<?xml version="1.0" encoding="UTF-8" standalone="no"?>
<svg
   viewBox="-17 139 135.99454 131.3628"
   version="1.1"
   id="svg11"
   width="135.99454"
   height="131.36281"
   xmlns="http://www.w3.org/2000/svg"
   xmlns:svg="http://www.w3.org/2000/svg">
  <defs
     id="defs11" />
  <path
     class="st0"
     d="m 11.671883,254.46213 c -1.004474,-0.83706 -1.9531437,-1.72993 -2.9018127,-2.62279 -0.111609,-0.11161 -0.223217,-0.22322 -0.334825,-0.33483 -11.942073,-11.66305 -19.3640153,-28.12525 -19.3640153,-46.42899 0,-35.32399 27.734628,-63.17022 61.998338,-63.17022 34.2637,0 61.998332,27.79043 61.998332,63.17022 0,19.86625 -8.76124,37.66775 -22.544852,49.38661 -10.71438,9.15187 -54.01835,-10.8818 -54.01835,-10.8818 l -4.52013,3.90629 -10.156343,0.22321 -9.933126,1.89734 -1.729926,1.22769 z"
     style="fill:#ffffff;stroke-width:0.558041"
     id="path1" />
  <path
     class="st1"
     d="m 51.850818,141.06824 c -34.654331,0 -62.779588,28.68329 -62.779588,63.95147 0,21.76359 3.1250283,33.64986 19.1407993,45.59194 1.450906,1.06027 4.0178947,-1.17189 7.7009637,-1.61832 8.091591,-1.06028 20.312685,-2.34377 29.464555,-2.34377 9.70991,0 27.56721,18.97338 35.77041,14.95549 21.093952,-10.32375 33.482452,-31.13868 33.482452,-56.58534 0,-35.26818 -28.069452,-63.95147 -62.779592,-63.95147 z m 60.882252,73.49397 -0.61384,4.57594 -36.384262,-6.47328 35.658812,10.32376 -0.78126,2.846 -35.379792,-10.15634 33.538252,14.56487 -2.45538,5.91523 -33.538252,-16.96444 30.915462,21.14975 -2.28796,3.12502 -30.469032,-20.92653 25.89309,26.78596 -3.62726,2.34377 -26.00471,-27.62302 18.19213,28.85071 -3.40404,2.17636 -15.17871,-26.89756 11.66305,28.29266 -26.11631,-13.89521 -8.76124,-1.56252 -7.97998,4.0179 0.39062,-11.49564 -6.696486,13.61619 -4.575934,0.44644 11.27242,-20.64751 -17.355065,20.70331 -6.417469,1.11608 22.656454,-26.50694 -30.4132227,24.05156 -1.674122,-2.51118 30.9154647,-24.83282 -33.87308067,20.4243 -3.29244103,-5.18978 33.9288817,-18.24794 -35.7146117,13.00235 -1.116082,-2.95761 36.3842607,-13.44879 -37.6119507,9.15187 -0.446432,-4.24111 38.1699957,-8.81704 -39.3976857,0.66965 0.613845,-6.30586 38.2815997,0.94867 -38.0583837,-7.70097 1.004473,-5.30139 36.8864977,8.87285 -35.1007667,-14.73227 1.171886,-3.68307 3.62726503,-6.13845 32.53377967,19.53143 -29.7993797,-24.5538 2.064751,-2.23216 29.6877687,24.44218 -26.7301527,-28.68329 4.8549557,-4.74335 25.558267,30.85966 -18.805973,-36.55168 2.511183,-1.67412 14.78808,27.344 1.11608,-0.89286 -9.933123,-29.52036 3.627263,-1.3393 10.15634,29.63197 2.06476,1.11608 -6.02685,-32.64539 1.95315,-0.44643 4.0737,20.36849 0.66964,-2.23217 2.51119,-3.73887 -0.16741,-15.79255 8.59382,-0.33483 -0.94867,19.25241 3.79468,2.17636 3.40405,-20.70331 3.01342,0.1116 1.95314,1.56252 -6.47327,31.97574 2.23216,-0.39063 11.71886,-29.68777 2.17636,1.17188 -11.27242,30.0226 1.33929,0.78125 13.50459,-29.74357 3.62727,2.34377 -16.85284,37.10971 22.37744,-33.76146 3.62727,3.85048 -22.37744,32.53378 28.18106,-27.62302 3.850482,5.4688 -26.897572,24.33058 29.408752,-20.75912 2.79021,4.79915 2.39957,6.47327 -32.980212,15.34612 34.877552,-9.54249 1.2835,4.57593 -35.993632,9.15187 36.886492,-1.61832 v 7.08712 l -37.611952,-0.94867 z"
     style="opacity:0.6196;fill:#c4d4dc;fill-opacity:1;stroke-width:0.558041"
     id="path2" />
  <path
     class="st2"
     d="m 97.219538,267.18546 c 0.16741,0 0.33482,0 0.44643,-0.0558 0.11161,0 0.22322,0 0.27902,-0.0558 0.16741,0 0.27902,-0.0558 0.44644,-0.0558 0.1116,0 0.22321,0 0.27902,-0.0558 0.16741,0 0.27902,-0.0558 0.44643,-0.0558 0.11161,0 0.22321,-0.0558 0.27902,-0.0558 0.16741,-0.0558 0.33482,-0.0558 0.44643,-0.1116 0.11161,0 0.167412,-0.0558 0.279022,-0.0558 0.16741,-0.0558 0.33483,-0.0558 0.50224,-0.11161 0.0558,0 0.11161,-0.0558 0.22321,-0.0558 0.22322,-0.0558 0.50224,-0.11161 0.72546,-0.16741 0.0558,0 0.11161,0 0.16741,-0.0558 0.22322,-0.0558 0.39063,-0.11161 0.61384,-0.16741 0.11161,0 0.22322,-0.0558 0.27903,-0.0558 0.16741,-0.0558 0.27902,-0.0558 0.44643,-0.11161 0.11161,-0.0558 0.22321,-0.0558 0.33482,-0.11161 0.16741,-0.0558 0.27902,-0.11161 0.44643,-0.11161 0.16742,-0.0558 0.39063,-0.11161 0.55805,-0.16741 0.1116,-0.0558 0.22321,-0.0558 0.33482,-0.11161 0.16741,-0.0558 0.27902,-0.11161 0.44643,-0.11161 0.11161,0 0.22322,-0.0558 0.27902,-0.0558 0.16742,-0.0558 0.33483,-0.11161 0.50224,-0.11161 0.0558,0 0.16741,-0.0558 0.27902,-0.0558 0.22322,-0.0558 0.50224,-0.11161 0.72545,-0.16742 0.33483,-0.1116 0.72546,-0.16741 1.11609,-0.22321 0.0558,0 0.16741,-0.0558 0.22321,-0.0558 0.39063,-0.0558 0.72545,-0.1116 1.11608,-0.16741 0.0558,0 0.11161,0 0.16742,0 0.33482,-0.0558 0.66964,-0.0558 1.00447,-0.11161 0.0558,0 0.16741,0 0.22321,0 0.39063,0 0.72546,-0.0558 1.11609,-0.0558 0.1116,0 0.22321,0 0.27902,0 0.22321,0 0.39063,0 0.61384,0 0.11161,0 0.22322,0 0.33483,0 0.22321,0 0.39062,0.0558 0.61384,0.0558 0.11161,0 0.16741,0 0.27902,0.0558 0.27902,0.0558 0.50224,0.0558 0.78126,0.11161 0.0558,0 0.0558,0 0.11161,0 0.27902,0.0558 0.55804,0.1116 0.83706,0.22321 0.0558,0 0.16741,0.0558 0.22321,0.0558 0.16742,0.0558 0.39063,0.1116 0.55805,0.22321 0.1116,0.0558 0.16741,0.0558 0.27902,0.11161 0.16741,0.0558 0.33482,0.16741 0.50223,0.22322 0.11161,0.0558 0.16741,0.11161 0.27902,0.16741 0.16741,0.11161 0.33483,0.22322 0.50224,0.33482 0.0558,0.0558 0.16741,0.11161 0.22322,0.16742 0.22321,0.16741 0.44643,0.33482 0.66964,0.55804 -1.17188,-2.12056 -3.23663,-3.57146 -5.5246,-4.57594 -0.39063,-0.16741 -0.78126,-0.33482 -1.17188,-0.44643 -0.16742,-0.0558 -0.39063,-0.16741 -0.55805,-0.22322 -0.16741,-0.0558 -0.39062,-0.1116 -0.55804,-0.22321 -2.34377,-0.78126 -4.74334,-1.3393 -6.97551,-2.28797 -0.72545,-0.33482 -1.4509,-0.66965 -2.17636,-1.11608 -0.27902,-0.16741 -0.55804,-0.33483 -0.83706,-0.55804 -0.1116,-0.0558 -0.22321,-0.16741 -0.33482,-0.22322 -0.16741,-0.11161 -0.33483,-0.22321 -0.44643,-0.39063 -0.11161,-0.11161 -0.27902,-0.22321 -0.39063,-0.33482 -0.111612,-0.11161 -0.223222,-0.16741 -0.334832,-0.27902 -0.16741,-0.16741 -0.33482,-0.27902 -0.50223,-0.44643 -0.0558,-0.0558 -0.16742,-0.16742 -0.22322,-0.22322 -0.22322,-0.22322 -0.39063,-0.39063 -0.61384,-0.61385 0,0 -0.0558,-0.0558 -0.0558,-0.0558 -0.78126,-0.78126 -1.50671,-1.50671 -2.23216,-2.28797 12.276902,-12.44431 19.196602,-29.35294 19.196602,-47.21025 0,-17.63409 -6.69649,-34.09629 -18.805972,-46.37319 -12.10949,-12.22109 -28.23687,-18.97339 -45.42452,-18.97339 -17.18766,0 -33.31504,6.7523 -45.4245267,18.97339 -12.109485,12.22109 -18.8059743,28.6833 -18.8059743,46.31739 0,18.35954 7.0871173,35.37978 20.0336643,48.04731 l 0.27902,0.27902 c -0.334824,0.11161 -0.725453,0.16741 -1.060277,0.27902 -1.395102,0.44643 -2.790204,0.89287 -4.185306,1.45091 -1.39510197,0.50223 -2.73439997,1.11608 -4.073698,1.72992 -5.357192,2.45538 -10.3795583,5.69202 -14.7880803,9.5983 9.2634763,-5.85942 19.7546433,-10.04473 30.692244,-10.54697 0.669649,-0.0558 1.395102,-0.0558 2.064751,-0.0558 0.669649,0 1.339298,0 2.008947,0.0558 0.167412,0 0.334824,0 0.502236,0.0558 0.502237,0 1.004474,0.0558 1.450906,0.11161 0.223217,0 0.502237,0.0558 0.725453,0.0558 0.390629,0.0558 0.837062,0.11161 1.22769,0.16741 0.279021,0.0558 0.558041,0.0558 0.837061,0.11161 0.390629,0.0558 0.781258,0.11161 1.171886,0.16741 0.27902,0.0558 0.558041,0.11161 0.837061,0.16742 0.390629,0.0558 0.725453,0.16741 1.116082,0.22321 0.27902,0.0558 0.558041,0.11161 0.837061,0.22322 0.334825,0.11161 0.725453,0.16741 1.060278,0.27902 0.27902,0.0558 0.55804,0.16741 0.837061,0.27902 0.334824,0.11161 0.725453,0.22321 1.060277,0.33482 0.279021,0.11161 0.558041,0.16742 0.837064,0.27902 0.33482,0.11161 0.66965,0.22322 1.00447,0.39063 0.27902,0.11161 0.55804,0.22322 0.83706,0.33483 0.33483,0.16741 0.66965,0.27902 1.00448,0.44643 0.27902,0.11161 0.55804,0.22322 0.78125,0.39063 0.33483,0.16741 0.66965,0.33482 1.00448,0.50223 0.27902,0.11161 0.50223,0.27902 0.78125,0.39063 0.33483,0.16742 0.66965,0.33483 0.94867,0.55804 0.22322,0.16742 0.50224,0.27902 0.72546,0.44644 0.33482,0.22321 0.61384,0.39062 0.94867,0.61384 0.22321,0.16741 0.44643,0.27902 0.72545,0.44643 0.33482,0.22322 0.61384,0.44644 0.94867,0.72546 0.22321,0.16741 0.44643,0.33482 0.61384,0.44643 0.33483,0.27902 0.66965,0.55804 1.00448,0.83706 0.16741,0.16741 0.33482,0.27902 0.50223,0.44643 0.50224,0.44644 0.94867,0.89287 1.45091,1.3393 1.11608,-0.44643 2.23216,-0.83706 3.34824,-1.22769 2.23217,-0.78126 4.46433,-1.50671 6.7523,-2.12055 1.11608,-0.33483 2.28796,-0.61385 3.40405,-0.89287 v 0 c -0.22322,-0.33482 -0.44644,-0.66965 -0.72546,-1.00447 -0.27902,-0.33483 -0.55804,-0.61385 -0.83706,-0.89287 -0.55804,-0.55804 -1.22769,-1.11608 -1.89734,-1.56251 -0.66965,-0.44643 -1.3951,-0.89287 -2.12055,-1.2835 -0.72546,-0.39062 -1.50671,-0.78125 -2.23217,-1.11608 -0.61384,-0.27902 -1.22769,-0.50223 -1.84153,-0.78125 -0.16741,-0.0558 -0.33482,-0.16742 -0.55804,-0.22322 -0.44643,-0.16741 -0.94867,-0.33483 -1.3951,-0.55804 -0.16741,-0.0558 -0.33483,-0.11161 -0.55804,-0.22322 -0.61385,-0.22321 -1.22769,-0.44643 -1.89734,-0.66965 -0.0558,0 -0.11161,-0.0558 -0.16741,-0.0558 -0.55805,-0.16741 -1.11609,-0.33483 -1.72993,-0.50224 -0.16741,-0.0558 -0.39063,-0.11161 -0.55804,-0.16741 -0.50224,-0.11161 -0.94867,-0.27902 -1.45091,-0.39063 -0.16741,-0.0558 -0.33482,-0.11161 -0.55804,-0.11161 -0.61384,-0.16741 -1.28349,-0.27902 -1.89734,-0.44643 -0.11161,0 -0.22321,-0.0558 -0.33482,-0.0558 -0.55804,-0.11161 -1.11608,-0.22322 -1.67412,-0.33483 -0.22322,-0.0558 -0.39063,-0.0558 -0.61385,-0.11161 -0.50224,-0.0558 -1.00447,-0.16741 -1.50671,-0.22321 -0.16741,0 -0.33482,-0.0558 -0.50224,-0.0558 -0.66964,-0.1116 -1.28349,-0.16741 -1.95314,-0.22321 -0.111607,0 -0.279019,0 -0.390627,-0.0558 -0.558041,-0.0558 -1.060278,-0.1116 -1.618319,-0.1116 -0.223216,0 -0.390628,0 -0.613845,-0.0558 -0.502236,-0.0558 -1.004473,-0.0558 -1.562514,-0.0558 -0.167412,0 -0.334824,0 -0.446432,0 -0.613845,0 -1.22769,-0.0558 -1.841535,-0.0558 -0.0558,0 -0.111608,0 -0.111608,0 -0.446433,0 -0.837061,0 -1.283494,0 -0.334825,0 -0.613845,0 -0.948669,0 -0.446433,0 -0.892866,0.0558 -1.339298,0.0558 -0.279021,0 -0.613845,0.0558 -0.892866,0.0558 -0.502236,0.0558 -1.004473,0.11161 -1.50671,0.11161 -0.223216,0 -0.502237,0.0558 -0.725453,0.0558 -0.725453,0.0558 -1.50671,0.16742 -2.232163,0.27902 -0.781257,0.11161 -1.562514,0.22322 -2.343771,0.39063 -0.502237,-0.44643 -1.004474,-0.89286 -1.450906,-1.3393 7.868375,-2.7902 16.238987,-2.17635 22.54485,-1.33929 0.0558,0 0.0558,0 0.11161,0 0.39062,0.0558 0.83706,0.1116 1.22769,0.16741 0.61384,0.11161 1.22769,0.16741 1.89733,0.33482 0.61385,0.11161 1.2835,0.27902 1.95315,0.39063 0.33482,0.0558 0.66965,0.16741 1.00447,0.22322 0.39063,0.11161 0.83706,0.22321 1.28349,0.33482 0.50224,0.11161 0.94867,0.27902 1.45091,0.39063 1.00447,0.27902 2.00895,0.61385 2.95762,0.94867 0.22321,0.0558 0.39063,0.16741 0.61384,0.22322 1.17189,0.44643 2.39958,0.89286 3.57146,1.3951 0.0558,0.0558 0.16742,0.0558 0.22322,0.11161 5.5246,2.34377 10.60277,5.35719 13.95102,8.70543 -8.37061,2.7344 -16.68542,5.58041 -24.94442,8.42642 0.50223,0.0558 1.00447,0.11161 1.50671,0.11161 0.16741,0 0.27902,0 0.44643,0 0.33482,0 0.66965,0 1.00447,0 0,0 0,0 0,0 0.44643,0 0.89287,0 1.3951,-0.0558 0.16742,0 0.27902,0 0.44644,0 0.33482,0 0.61384,-0.0558 0.94867,-0.0558 0.16741,0 0.33482,-0.0558 0.50223,-0.0558 0.27902,-0.0558 0.55804,-0.0558 0.83706,-0.11161 0.16742,0 0.39063,-0.0558 0.55804,-0.0558 0.27902,-0.0558 0.55805,-0.0558 0.83707,-0.1116 0.16741,-0.0558 0.39062,-0.0558 0.55804,-0.11161 0.27902,-0.0558 0.55804,-0.11161 0.83706,-0.16742 0.16741,-0.0558 0.33482,-0.0558 0.50223,-0.1116 0.27902,-0.0558 0.61385,-0.11161 0.89287,-0.22322 0.16741,-0.0558 0.27902,-0.0558 0.44643,-0.11161 0.44643,-0.11161 0.83706,-0.22321 1.2835,-0.33482 0.0558,0 0.0558,0 0.1116,0 0.44644,-0.11161 0.89287,-0.22322 1.3393,-0.39063 0.16741,-0.0558 0.27902,-0.11161 0.44643,-0.11161 0.27903,-0.11161 0.61385,-0.16741 0.89287,-0.27902 0.16741,-0.0558 0.33482,-0.11161 0.50224,-0.16741 0.27902,-0.11161 0.55804,-0.16741 0.83706,-0.27902 0.16741,-0.0558 0.39063,-0.11161 0.55804,-0.16741 0.27902,-0.11161 0.55804,-0.16742 0.83706,-0.27902 0.16741,-0.0558 0.39063,-0.11161 0.55804,-0.16742 0.27902,-0.11161 0.55804,-0.16741 0.83706,-0.27902 0.16741,-0.0558 0.33483,-0.11161 0.50224,-0.16741 0.33482,-0.11161 0.66965,-0.22322 1.00447,-0.33482 0.55804,-0.16742 1.06028,-0.33483 1.61832,-0.55805 0.39063,-0.1116 0.83706,-0.27902 1.22769,-0.39062 0.11161,-0.0558 0.22322,-0.0558 0.33482,-0.11161 0.33483,-0.11161 0.66965,-0.22322 1.06028,-0.33483 0.11161,-0.0558 0.16741,-0.0558 0.27902,-0.1116 0.44644,-0.11161 0.83706,-0.27902 1.2835,-0.39063 0.1116,0 0.16741,-0.0558 0.27902,-0.0558 0.33482,-0.11161 0.72545,-0.22321 1.06027,-0.27902 0.11161,-0.0558 0.22322,-0.0558 0.33483,-0.11161 0.44643,-0.1116 0.89286,-0.22321 1.3393,-0.33482 0,0 0,0 0,0 0.44643,-0.11161 0.83706,-0.22322 1.28349,-0.27902 0.11161,0 0.22322,-0.0558 0.33483,-0.0558 0.39062,-0.0558 0.72545,-0.16742 1.11608,-0.22322 0.0558,0 0.16741,-0.0558 0.22321,-0.0558 0.44644,-0.0558 0.89287,-0.16742 1.3393,-0.22322 0.11161,0 0.16741,0 0.27902,-0.0558 0.33483,-0.0558 0.72545,-0.1116 1.06028,-0.1116 0.11161,0 0.22322,0 0.33482,-0.0558 0.44644,-0.0558 0.89287,-0.11161 1.3393,-0.11161 0.0558,0 0.0558,0 0.11161,0 0.39063,0 0.83706,-0.0558 1.22769,-0.0558 0.11161,0 0.22322,0 0.39063,0 0.44643,0 0.83706,0 1.22769,0 0,0 0.0558,0 0.0558,0 0.44643,0 0.83706,0.0558 1.2835,0.0558 0.0558,0 0.1116,0 0.16741,0 0.44643,0.0558 0.83706,0.11161 1.28349,0.16742 0.0558,0 0.16741,0 0.22322,0.0558 0.44643,0.0558 0.83706,0.11161 1.22769,0.22322 0.0558,0 0.11161,0.0558 0.22321,0.0558 0.44644,0.11161 0.89287,0.22322 1.2835,0.33483 3.23663,0.94866 6.25005,2.62279 9.5983,3.01342 0.27902,0.0558 0.50224,0.0558 0.78126,0.0558 0.1116,0 0.16741,0 0.27902,0 0.16741,0 0.33482,0 0.50223,0 0,0 0,0 0.0558,0 0.0558,0 0.11161,0 0.22321,0 0.16742,0 0.33483,0 0.55804,0 0.11161,0.11161 0.22322,0.11161 0.33483,0.11161 z m -51.39556,-39.89992 v 8.37061 h 7.97999 v -8.48222 c 0.33482,0.0558 0.72545,0.11161 1.06027,0.16741 0.27902,3.51566 0.66965,7.97999 0.94867,11.55145 -2.17636,1.17189 -4.35272,2.39957 -6.75229,2.28797 -2.28797,-0.0558 -4.46433,-1.2835 -6.7523,-1.17189 -2.39957,0.11161 -4.35271,1.61832 -6.30586,3.12503 0.16742,-3.79468 0.55804,-8.2032 0.83706,-11.88627 2.51119,-1.95314 5.69202,-3.34824 8.98446,-3.96209 z m -7.36614,-8.98446 c 3.01342,-2.12055 6.64069,-3.40404 10.32376,-3.73887 0.27902,0.27902 0.66965,0.44643 1.11608,0.44643 0.50224,0 0.89286,-0.22321 1.17189,-0.55804 0.94866,0.0558 1.89733,0.11161 2.846,0.27902 0.22322,3.18084 0.50224,6.36167 0.72546,9.4867 -0.44644,-0.0558 -0.83706,-0.11161 -1.2835,-0.16742 -0.66965,-1.33929 -2.00894,-2.23216 -3.62726,-2.23216 -1.56252,0 -2.90181,0.89287 -3.51566,2.23216 -3.01342,0.33483 -5.97104,1.17189 -8.31481,3.12503 0.0558,-2.95761 0.27902,-5.91523 0.55804,-8.87285 z m -2.12055,-33.64986 c 0.0558,-0.39062 0.11161,-0.78125 0.16741,-1.17188 6.19425,-1.67412 13.11396,-1.78573 19.58723,-0.11161 -6.64068,-0.27902 -13.28137,0.11161 -19.75464,1.28349 z m 4.29691,-5.18978 c 0.0558,0.66965 0.11161,1.39511 0.11161,2.12056 -1.3951,0.11161 -2.7344,0.33482 -4.0737,0.61384 -0.16741,-0.94867 -0.16741,-1.95314 0.0558,-2.846 1.22769,0.0558 2.56698,0.1116 3.90628,0.1116 z m 0.0558,-1.67412 v 0 c 0.16741,0 0.33482,0.11161 0.33482,0.22322 0,0.16741 -0.11161,0.27902 -0.22322,0.33482 0,0 -0.0558,0 -0.0558,0 l -3.06922,-0.22321 z m -1.50671,-1.06028 c 0.0558,0 0.0558,0 0.1116,0 0.0558,0 0.0558,0 0.11161,0 -0.11161,0 -0.16741,0 -0.22321,0 z m 2.34377,-11.0492 v 0 c -0.22322,0 -0.39063,0 -0.61385,-0.0558 -0.22321,0 -0.39063,-0.0558 -0.55804,-0.11161 0.16741,0.0558 0.39063,0.11161 0.55804,0.11161 0.22322,0.0558 0.44644,0.0558 0.61385,0.0558 z m 0.66965,-2.7344 c 0.0558,0 0.0558,0 0.1116,0 0.11161,0 0.16742,0 0.27903,0 -0.16742,0 -0.27903,0 -0.39063,0 z m 2.62279,2.7344 c -0.16741,2.51118 -0.16741,5.02236 0.11161,7.53355 -0.72546,-0.0558 -1.50671,0.16741 -2.00895,0.66965 0.11161,-2.6228 0.0558,-5.30139 -0.16741,-7.92418 0.55804,-0.22322 1.28349,-0.33483 2.06475,-0.27902 z m 4.74335,-6.97551 c -1.56252,0.89286 -2.79021,2.34377 -3.40405,4.07369 -0.61385,-0.16741 -1.22769,-0.22321 -1.56252,-0.16741 0.78126,-2.12055 2.79021,-3.68307 4.96657,-3.90628 z m 4.40852,6.80809 c 0.0558,2.34378 0.16741,4.63174 0.22321,6.97551 0,0.16742 0,0.27902 -0.1116,0.39063 -0.11161,0.11161 -0.33483,0.11161 -0.50224,0.11161 -2.51118,-0.22322 -5.02237,-0.11161 -7.47775,0.27902 0.11161,-2.51118 0.0558,-5.07817 -0.16741,-7.64516 2.7344,-0.22321 5.4688,-0.27902 8.03579,-0.11161 z m -4.1295,-7.92418 c 0.16741,0 0.27902,0 0.44643,0 0,0 0,0 0,0 -0.11161,-0.0558 -0.27902,-0.0558 -0.44643,0 z m 3.51565,0.66965 c 0,0 0,0 0,0 0.33483,0.16742 0.66965,0.39063 1.00448,0.61385 -0.33483,-0.22322 -0.61385,-0.44643 -1.00448,-0.61385 z m -0.78125,16.18319 c -3.18084,-0.50224 -6.41747,-0.0558 -9.4867,0.78125 0,-0.22321 0,-0.44643 0,-0.66964 2.7344,-1.22769 6.30586,-1.22769 9.4867,-0.11161 z m 6.9197,-8.87285 c -0.44643,0.16741 -0.83706,0.22321 -1.22769,0.27902 v 0 c 0.39063,0 0.83706,-0.11161 1.22769,-0.27902 z m -1.11608,-2.56699 c 0,0 0,0 0,0 0.0558,0 0.11161,0 0.11161,0 -0.0558,0 -0.0558,0 -0.11161,0 z m 1.45091,18.52696 c 0.0558,-0.66965 0.0558,-1.3393 -0.0558,-1.95315 1.06028,-0.39063 2.39958,-0.44643 3.68307,-0.16741 0.16741,0.83706 0.22322,1.72993 0.22322,2.62279 -1.2835,-0.44643 -2.56699,-0.83706 -3.85048,-0.50223 z m 2.00894,5.91523 c -0.39063,0.50223 -0.66965,1.06028 -0.83706,1.61832 -0.0558,0.22321 -0.11161,0.44643 -0.16741,0.66964 0.0558,-0.22321 0.11161,-0.44643 0.16741,-0.66964 0.16741,-0.55804 0.44643,-1.11609 0.83706,-1.61832 z m -2.06475,-9.09607 c -0.16741,0.0558 -0.27902,-0.0558 -0.33482,-0.22321 -0.0558,-0.16742 0.0558,-0.27902 0.22321,-0.33483 0,0 0.0558,0 0.0558,0 1.06028,-0.0558 2.17636,0.0558 3.18083,0.27902 -1.11608,-0.0558 -2.17636,0 -3.12503,0.27902 z m -1.17188,-2.95761 c 0.0558,0 0.0558,0 0,0 0,0 -0.11161,0 -0.16742,0 0.0558,0 0.11161,0 0.16742,0 z m -1.3393,-1.67413 c -0.44643,-0.33482 -1.00448,-0.55804 -1.56252,-0.61384 -0.0558,-2.39958 -0.16741,-4.85496 -0.22321,-7.25453 0.50223,0.11161 1.17188,0.16741 1.84153,0.11161 -0.11161,2.56698 -0.11161,5.18978 -0.0558,7.75676 z m -7.36614,19.41982 c -0.89287,0 -1.61832,0.72546 -1.61832,1.61832 v 4.57594 c -2.95761,0.27902 -5.85943,1.06027 -8.48222,2.45538 0.39063,-2.90182 0.72545,-5.97104 1.06028,-9.04026 3.34824,-1.95315 7.31033,-2.7344 11.10501,-2.39958 0.22322,3.01342 0.44643,6.02684 0.66965,9.04026 -0.39063,-0.0558 -0.83706,-0.0558 -1.22769,-0.0558 v -4.52013 c 0.11161,-0.94867 -0.61385,-1.67413 -1.50671,-1.67413 z m -10.37956,12.05369 c 4.1295,-1.61832 8.87285,-2.28797 13.44878,-1.84154 0.22322,2.84601 0.44644,5.69202 0.66965,8.53802 -0.72545,-0.1116 -1.4509,-0.22321 -2.17636,-0.33482 v -2.84601 c 0,-0.89286 -0.72545,-1.61832 -1.61831,-1.61832 -0.89287,0 -1.61832,0.72546 -1.61832,1.61832 v 2.79021 c -3.40405,0.16741 -6.8081,1.17188 -9.5983,3.12502 0.27902,-3.12502 0.61384,-6.25005 0.89286,-9.43088 z m -48.2147247,-0.11161 c 0,-16.46221 6.194252,-31.80833 17.522481,-43.24817 11.2166207,-11.38403 26.2279137,-17.63408 42.2436937,-17.63408 16.01577,0 31.02706,6.25005 42.24368,17.63408 11.272432,11.43984 17.522482,26.78596 17.522482,43.24817 0,16.79703 -6.52907,32.70119 -18.136322,44.30844 0,0 0,0 0,0 -0.11161,-0.11161 -0.27902,-0.16742 -0.39063,-0.22322 -0.11161,-0.0558 -0.22322,-0.16741 -0.33482,-0.22322 -0.11161,-0.0558 -0.22322,-0.1116 -0.33483,-0.22321 -0.16741,-0.0558 -0.27902,-0.16741 -0.44643,-0.22322 -0.11161,-0.0558 -0.22322,-0.11161 -0.27902,-0.11161 -0.27902,-0.11161 -0.55804,-0.22321 -0.83706,-0.33482 -3.68307,-1.22769 -7.86838,-0.16741 -11.55145,-1.3951 -3.18083,-1.00448 -5.5246,-3.51566 -8.03578,-5.74782 -0.16742,-0.16742 -0.33483,-0.27902 -0.50224,-0.44644 -0.0558,-0.0558 -0.11161,-0.1116 -0.16741,-0.1116 -0.11161,-0.11161 -0.22322,-0.22322 -0.33483,-0.27902 -0.0558,-0.0558 -0.11161,-0.11161 -0.16741,-0.16742 -0.11161,-0.11161 -0.22322,-0.16741 -0.33483,-0.27902 -0.0558,-0.0558 -0.1116,-0.11161 -0.22321,-0.16741 -0.11161,-0.11161 -0.22322,-0.16741 -0.33483,-0.27902 -0.0558,-0.0558 -0.1116,-0.11161 -0.16741,-0.16741 -0.11161,-0.11161 -0.27902,-0.16741 -0.39063,-0.27902 -0.0558,-0.0558 -0.1116,-0.0558 -0.16741,-0.11161 -0.39063,-0.22322 -0.72545,-0.50224 -1.11608,-0.66965 -0.0558,-0.0558 -0.11161,-0.0558 -0.16741,-0.0558 -0.16741,-0.0558 -0.27902,-0.16742 -0.44644,-0.22322 0,0 -0.0558,0 -0.0558,-0.0558 -0.83706,-11.43984 -2.06475,-23.04709 -3.23664,-34.26371 -0.1116,-3.18083 -0.44643,-6.08264 -0.72545,-8.92865 -0.16741,-1.72993 -0.33482,-3.45986 0.16741,-5.07817 0.39063,-1.2835 1.56252,-2.6228 2.90182,-2.6228 h 0.72545 l 0.27902,-0.66964 c 0.39063,-0.94867 0.55804,-1.78573 0.72545,-2.56699 l 0.16741,-0.83706 -0.78125,-0.39063 c -0.16742,-0.0558 -0.33483,-0.16741 -0.44644,-0.22322 0,-0.72545 -0.1116,-1.4509 -0.22321,-2.23216 0.33482,-0.27902 0.66965,-0.61385 0.78126,-1.22769 0.1116,-0.78126 -0.27903,-1.50671 -1.06028,-2.00895 -1.3393,-0.89286 -3.01342,-1.06028 -4.40852,-1.06028 -0.16742,-0.33482 -0.39063,-0.55804 -0.55805,-0.72545 -0.16741,-0.11161 -0.33482,-0.27902 -0.50223,-0.33482 0.11161,-2.56699 0.0558,-5.13398 -0.11161,-7.75677 0.50224,-0.16741 1.06028,-0.39063 1.61832,-0.72545 0.61384,-0.39063 0.94867,-0.83706 1.06028,-1.39511 0.1116,-0.55804 -0.0558,-1.11608 -0.44644,-1.56251 -0.27902,-0.33482 -0.66965,-0.55804 -0.89286,-0.66965 -0.72546,-0.33482 -1.50671,-0.55804 -2.34377,-0.55804 -0.16742,0 -0.27902,0 -0.44644,0 -0.66965,-2.00895 -2.17636,-3.73887 -4.07369,-4.68754 -1.11609,-0.55804 -2.34378,-0.83706 -3.57147,-0.83706 -1.22769,0 -2.45538,0.27902 -3.51565,0.78125 -1.89734,0.94867 -3.40405,2.6228 -4.1295,4.57594 -0.11161,0 -0.22322,0 -0.33483,0 -0.61384,0 -1.22769,0.0558 -1.89734,0.22321 -1.3951,0.33483 -1.89734,1.11609 -2.06475,1.67413 -0.27902,0.94867 0.22322,2.06475 1.17189,2.62279 0.33482,0.16741 0.66965,0.27902 1.00447,0.39063 0.0558,2.7344 0.11161,5.4688 0.16741,8.2032 -0.27902,0.16741 -0.50223,0.44643 -0.66965,0.72545 -0.22321,0 -0.44643,0 -0.72545,0 -1.22769,0 -2.51118,0.22322 -3.68307,0.55804 -1.56251,0.50224 -1.84153,1.3951 -1.89734,1.95314 -0.0558,0.50224 0.11161,1.00448 0.44644,1.39511 0.1116,0.16741 0.27902,0.27902 0.44643,0.39062 -0.0558,0.72546 -0.0558,1.50671 0,2.34378 -0.11161,0.0558 -0.27902,0.16741 -0.39063,0.22321 l -0.50224,0.44643 0.11161,0.66965 c 0.11161,0.50224 0.16741,1.2835 0.27902,2.06475 l 0.11161,1.39511 1.3393,-0.44644 c 0.16741,-0.0558 0.27902,-0.0558 0.44643,-0.0558 0.89287,0 1.95314,0.83706 2.39958,1.89734 0.55804,1.4509 0.39062,3.23664 0.16741,4.79915 -2.00895,16.79703 -3.57146,33.87308 -4.63174,50.78171 l -0.0558,0.66965 c -0.33482,0.22322 -0.61384,0.39063 -0.94866,0.55804 -2.95762,1.56252 -6.305865,1.67412 -9.65411,1.67412 -0.334825,0 -0.669649,0 -0.94867,0 -0.27902,0 -0.613844,0 -0.892865,0 -0.0558,0 -0.111608,0 -0.167412,0 -0.0558,0 -0.0558,0 -0.111608,0 -0.446433,0 -0.892866,0 -1.339298,0 -0.279021,0 -0.502237,0 -0.781257,0 -0.111608,0 -0.167413,0 -0.279021,0 -0.167412,0 -0.334824,0 -0.502236,0.0558 -0.111609,0 -0.223217,0 -0.334825,0 -0.167412,0 -0.27902,0.0558 -0.446433,0.0558 -0.111608,0 -0.223216,0 -0.334824,0.0558 -0.111608,0 -0.27902,0.0558 -0.390629,0.0558 -0.27902,0.0558 -0.502236,0.0558 -0.781257,0.11161 -0.0558,0 -0.167412,0.0558 -0.223216,0.0558 -0.167412,0.0558 -0.334825,0.0558 -0.502237,0.11161 -0.0558,0 -0.111608,0.0558 -0.223216,0.0558 -0.167412,0.0558 -0.334825,0.1116 -0.558041,0.1116 -0.0558,0 -0.0558,0 -0.111608,0 -0.837061,0.22322 -1.674122,0.50224 -2.399575,0.89287 0,0 0,0 0,0 -0.781258,0.39063 -1.506711,0.83706 -2.120557,1.3951 0,0 0,0 0,0 C -2.0559217,238.0557 -8.6966067,222.20734 -8.6966067,205.07549 Z M 64.741548,182.9771 c 0.27903,0.11161 0.50224,0.16741 0.83707,0.33483 -0.27902,-0.16742 -0.55804,-0.22322 -0.83707,-0.33483 z m -4.07369,-18.02472 c 0.11161,-0.0558 0.16741,-0.16741 0.22321,-0.22321 -0.0558,0.11161 -0.16741,0.16741 -0.22321,0.22321 z m -25.11184,18.13633 c 0,0 0,-0.0558 0,0 0.11161,0 0.16741,0 0.22322,0 -0.11161,0 -0.16741,-0.0558 -0.22322,0 z m -0.0558,-4.0737 c 0.0558,0 0.0558,0 0.11161,0 0,0 0,0 0,0 -0.0558,0 -0.11161,0 -0.11161,0 z"
     style="fill:#0000a8;fill-opacity:1;stroke-width:0.558041"
     id="path3" />
  <path
     class="st2"
     d="m 39.239098,268.24574 c 0.22322,-0.0558 0.39063,-0.11161 0.61385,-0.22322 0.1116,-0.0558 0.22321,-0.0558 0.27902,-0.11161 0.27902,-0.11161 0.55804,-0.22322 0.89286,-0.33482 -6.02684,-4.91076 -13.560391,-7.97999 -21.317158,-8.70544 -0.55804,-0.0558 -1.116081,-0.11161 -1.674122,-0.11161 -0.167412,0 -0.334825,0 -0.502237,0 -0.390628,0 -0.781257,0 -1.171885,-0.0558 -0.111609,0 -0.223217,0 -0.279021,0 -0.111608,0 -0.27902,0 -0.390628,0 -0.167413,0 -0.334825,0 -0.502237,0 -0.279021,0 -0.613845,0 -0.892865,0.0558 -0.167413,0 -0.334825,0 -0.502237,0 -0.334825,0 -0.725453,0.0558 -1.060278,0.0558 -0.111608,0 -0.223216,0 -0.334824,0 -0.446433,0.0558 -0.892865,0.1116 -1.339298,0.16741 -0.111608,0 -0.223216,0.0558 -0.334825,0.0558 -0.334824,0.0558 -0.66965,0.11161 -1.0044737,0.16741 -0.167412,0 -0.334824,0.0558 -0.502237,0.0558 -0.27902,0.0558 -0.558041,0.11161 -0.837061,0.16741 -0.167412,0.0558 -0.334824,0.0558 -0.502237,0.11161 -0.27902,0.0558 -0.55804,0.11161 -0.837061,0.16741 -0.167412,0.0558 -0.334824,0.0558 -0.502237,0.11161 -0.334824,0.0558 -0.613844,0.16741 -0.948669,0.22322 -0.111608,0.0558 -0.27902,0.0558 -0.390628,0.1116 -0.446433,0.11161 -0.892866,0.22322 -1.283494,0.39063 -0.0558,0 -0.167413,0.0558 -0.223217,0.0558 -0.334824,0.1116 -0.725453,0.22321 -1.060277,0.33482 -0.167412,0.0558 -0.279021,0.11161 -0.446433,0.16741 -0.27902,0.11161 -0.558041,0.22322 -0.837061,0.33483 -0.167412,0.0558 -0.334824,0.11161 -0.50223697,0.16741 -0.27902,0.11161 -0.558041,0.22322 -0.781257,0.33482 -0.167412,0.0558 -0.334824,0.11161 -0.446432,0.22322 -0.279021,0.11161 -0.55804101,0.27902 -0.83706203,0.39063 -0.111608,0.0558 -0.27902,0.11161 -0.390628,0.16741 -0.390629,0.22322 -0.781257,0.39063 -1.22769,0.61385 0.502237,-0.11161 1.004473,-0.16742 1.450906,-0.27902 0.111608,0 0.223216,-0.0558 0.334825,-0.0558 0.50223603,-0.0558 0.94866903,-0.11161 1.39510203,-0.16741 0.0558,0 0.0558,0 0.111608,0 0.446432,-0.0558 0.89286497,-0.0558 1.33929797,-0.11161 0.111608,0 0.223216,0 0.334824,0 0.446433,0 0.892865,-0.0558 1.339298,-0.0558 0.0558,0 0.167412,0 0.223216,0 0.279021,0 0.613845,0 0.892866,0 0.111608,0 0.27902,0 0.390628,0 0.223217,0 0.502237,0 0.725453,0.0558 0.111608,0 0.279021,0 0.390629,0.0558 0.27902,0 0.502237,0.0558 0.781257,0.0558 0.111608,0 0.223216,0 0.334824,0.0558 0.334825,0.0558 0.725453,0.11161 1.060278,0.11161 0.0558,0 0.0558,0 0.111608,0 0.334825,0.0558 0.613845,0.11161 0.948669,0.16741 0.111609,0 0.223217,0.0558 0.334825,0.0558 0.223216,0.0558 0.5022377,0.11161 0.7254537,0.11161 0.111608,0 0.223216,0.0558 0.390629,0.0558 0.223216,0.0558 0.502236,0.11161 0.725453,0.16741 0.111608,0 0.223216,0.0558 0.334824,0.0558 0.334825,0.0558 0.669649,0.16741 1.004473,0.27902 2.343772,0.61384 4.687543,1.3951 6.97551,2.17636 1.171886,0.39062 2.287968,0.78125 3.459853,1.11608 1.171886,0.33482 2.343772,0.66965 3.515657,0.94867 0.502237,0.11161 1.060278,0.22321 1.562515,0.33482 0.0558,0 0.111608,0 0.167412,0 0.502237,0.11161 1.004473,0.16741 1.50671,0.22322 0.0558,0 0.167413,0 0.223213,0.0558 0.50224,0.0558 1.00448,0.11161 1.50671,0.16741 0.0558,0 0.16742,0 0.22322,0 0.50224,0.0558 1.00447,0.0558 1.45091,0.0558 0.0558,0 0.0558,0 0.1116,0 0.0558,0 0.16742,0 0.22322,0 0.16741,0 0.33482,0 0.50224,0 0.16741,0 0.27902,0 0.44643,0 0.16741,0 0.33482,0 0.50224,-0.0558 0.16741,0 0.27902,0 0.44643,-0.0558 0.16741,0 0.33482,-0.0558 0.50224,-0.0558 0.1116,0 0.27902,-0.0558 0.39062,-0.0558 0.16742,0 0.33483,-0.0558 0.50224,-0.11161 0.11161,0 0.27902,-0.0558 0.39063,-0.0558 0.16741,-0.0558 0.33482,-0.0558 0.50224,-0.11161 0.1116,-0.0558 0.27902,-0.0558 0.39063,-0.11161 0.16741,-0.0558 0.33482,-0.1116 0.55804,-0.16741 0.1116,0.11161 0.22321,0.11161 0.33482,0.0558 z"
     style="fill:#0000a8;fill-opacity:1;stroke-width:0.558041"
     id="path4" />
  <path
     class="st3"
     d="m 59.161158,192.40799 c -2.23217,-1.17188 -4.63174,-1.84153 -7.14293,-2.06475 0.22322,3.01342 0.44644,6.02684 0.66965,9.04026 2.6786,0.27902 5.3572,1.00447 7.70097,2.23216 -0.33483,-3.06922 -0.66965,-6.13844 -1.22769,-9.20767 z"
     style="fill:#c4d4dc;stroke-width:0.558041"
     id="path5" />
  <path
     class="st3"
     d="m 60.221428,205.01971 c -2.34377,-0.89286 -4.74334,-1.4509 -7.25453,-1.67412 0.22322,2.84601 0.44644,5.69202 0.66965,8.53802 2.79021,0.50224 5.4688,1.50671 7.92418,2.84601 -0.33482,-3.23663 -0.78125,-6.52907 -1.3393,-9.70991 z"
     style="fill:#c4d4dc;stroke-width:0.558041"
     id="path6" />
  <path
     class="st3"
     d="m 62.007158,217.91046 c -2.45537,-1.56252 -5.18977,-2.6228 -8.09159,-3.12503 0.22322,3.18083 0.50224,6.36166 0.72546,9.48669 3.01342,0.44643 5.97103,1.3951 8.48222,3.01342 -0.27902,-3.12503 -0.55804,-6.30586 -1.11609,-9.37508 z"
     style="fill:#c4d4dc;stroke-width:0.558041"
     id="path7" />
  <path
     class="st3"
     d="m 63.792898,237.16286 c 0.0558,-2.06475 -0.0558,-4.07369 -0.55805,-5.97103 -0.83706,-1.06028 -2.06475,-1.72993 -3.23663,-2.28797 -1.61832,-0.72545 -3.34825,-1.28349 -5.07817,-1.61832 0.27902,3.62727 0.66965,7.92418 0.94867,11.55145 2.51118,-1.06028 5.24558,-2.12056 7.92418,-1.67413 z"
     style="fill:#c4d4dc;stroke-width:0.558041"
     id="path8" />
</svg>
